<svg width="120" height="16" viewBox="0 0 120 16" fill="none" xmlns="http://www.w3.org/2000/svg">
<path fill-rule="evenodd" clip-rule="evenodd" d="M7.33893 0.823233C7.54837 0.353968 7.65314 0.119336 7.79898 0.0470819C7.92564 -0.015694 8.07438 -0.015694 8.20104 0.0470819C8.34688 0.119336 8.45164 0.353968 8.66108 0.823233L10.3294 4.56099C10.3914 4.69971 10.4223 4.76908 10.4702 4.82219C10.5126 4.8692 10.5644 4.90679 10.6222 4.93252C10.6876 4.96162 10.7633 4.96958 10.9145 4.98552L14.9897 5.41506C15.5013 5.46898 15.757 5.49594 15.8709 5.61212C15.9698 5.71304 16.0158 5.85435 15.9952 5.99407C15.9715 6.15489 15.7804 6.32683 15.3982 6.67079L12.3541 9.41042C12.2412 9.51206 12.1847 9.56293 12.1489 9.62482C12.1173 9.67966 12.0975 9.74047 12.0909 9.80335C12.0833 9.87446 12.0991 9.94873 12.1307 10.0974L12.9809 14.1005C13.0877 14.6032 13.1411 14.8544 13.0656 14.9984C13 15.1237 12.8797 15.2109 12.7403 15.2345C12.5798 15.2616 12.3569 15.1333 11.9113 14.8767L8.36162 12.832C8.2299 12.7561 8.16403 12.7183 8.09401 12.7033C8.03204 12.6902 7.96798 12.6902 7.90601 12.7033C7.83598 12.7183 7.77012 12.7561 7.63839 12.832L4.08876 14.8767C3.64312 15.1333 3.4203 15.2616 3.25979 15.2345C3.12037 15.2109 3 15.1237 2.93446 14.9984C2.85902 14.8544 2.91239 14.6032 3.01914 14.1005L3.86935 10.0974C3.90091 9.94873 3.91669 9.87446 3.9092 9.80335C3.90256 9.74047 3.88278 9.67966 3.85111 9.62482C3.81533 9.56293 3.75884 9.51206 3.64587 9.41042L0.601847 6.67079C0.219686 6.32683 0.0286016 6.15489 0.0048438 5.99407C-0.0157837 5.85435 0.0301849 5.71304 0.129106 5.61212C0.242992 5.49594 0.4988 5.46898 1.01042 5.41506L5.08551 4.98552C5.23676 4.96958 5.31238 4.96162 5.37777 4.93252C5.43563 4.90679 5.48743 4.8692 5.52983 4.82219C5.57773 4.76908 5.60869 4.69971 5.67062 4.56099L7.33893 0.823233Z" fill="#C7A961"/>
<path fill-rule="evenodd" clip-rule="evenodd" d="M33.3389 0.823233C33.5484 0.353968 33.6531 0.119336 33.799 0.0470819C33.9256 -0.015694 34.0744 -0.015694 34.201 0.0470819C34.3469 0.119336 34.4516 0.353968 34.6611 0.823233L36.3294 4.56099C36.3914 4.69971 36.4223 4.76908 36.4702 4.82219C36.5126 4.8692 36.5644 4.90679 36.6222 4.93252C36.6876 4.96162 36.7633 4.96958 36.9145 4.98552L40.9897 5.41506C41.5013 5.46898 41.757 5.49594 41.8709 5.61212C41.9698 5.71304 42.0158 5.85435 41.9952 5.99407C41.9715 6.15489 41.7804 6.32683 41.3982 6.67079L38.3541 9.41042C38.2412 9.51206 38.1847 9.56293 38.1489 9.62482C38.1173 9.67966 38.0975 9.74047 38.0909 9.80335C38.0833 9.87446 38.0991 9.94873 38.1307 10.0974L38.9809 14.1005C39.0877 14.6032 39.1411 14.8544 39.0656 14.9984C39 15.1237 38.8797 15.2109 38.7403 15.2345C38.5798 15.2616 38.3569 15.1333 37.9113 14.8767L34.3616 12.832C34.2299 12.7561 34.164 12.7183 34.094 12.7033C34.032 12.6902 33.968 12.6902 33.906 12.7033C33.836 12.7183 33.7701 12.7561 33.6384 12.832L30.0888 14.8767C29.6431 15.1333 29.4203 15.2616 29.2598 15.2345C29.1204 15.2109 29 15.1237 28.9345 14.9984C28.859 14.8544 28.9124 14.6032 29.0191 14.1005L29.8694 10.0974C29.9009 9.94873 29.9167 9.87446 29.9092 9.80335C29.9026 9.74047 29.8828 9.67966 29.8511 9.62482C29.8153 9.56293 29.7588 9.51206 29.6459 9.41042L26.6018 6.67079C26.2197 6.32683 26.0286 6.15489 26.0048 5.99407C25.9842 5.85435 26.0302 5.71304 26.1291 5.61212C26.243 5.49594 26.4988 5.46898 27.0104 5.41506L31.0855 4.98552C31.2368 4.96958 31.3124 4.96162 31.3778 4.93252C31.4356 4.90679 31.4874 4.8692 31.5298 4.82219C31.5777 4.76908 31.6087 4.69971 31.6706 4.56099L33.3389 0.823233Z" fill="#C7A961"/>
<path fill-rule="evenodd" clip-rule="evenodd" d="M59.3389 0.823233C59.5484 0.353968 59.6531 0.119336 59.799 0.0470819C59.9256 -0.015694 60.0744 -0.015694 60.201 0.0470819C60.3469 0.119336 60.4516 0.353968 60.6611 0.823233L62.3294 4.56099C62.3914 4.69971 62.4223 4.76908 62.4702 4.82219C62.5126 4.8692 62.5644 4.90679 62.6222 4.93252C62.6876 4.96162 62.7633 4.96958 62.9145 4.98552L66.9897 5.41506C67.5013 5.46898 67.757 5.49594 67.8709 5.61212C67.9698 5.71304 68.0158 5.85435 67.9952 5.99407C67.9715 6.15489 67.7804 6.32683 67.3982 6.67079L64.3541 9.41042C64.2412 9.51206 64.1847 9.56293 64.1489 9.62482C64.1173 9.67966 64.0975 9.74047 64.0909 9.80335C64.0833 9.87446 64.0991 9.94873 64.1307 10.0974L64.9809 14.1005C65.0877 14.6032 65.1411 14.8544 65.0656 14.9984C65 15.1237 64.8797 15.2109 64.7403 15.2345C64.5798 15.2616 64.3569 15.1333 63.9113 14.8767L60.3616 12.832C60.2299 12.7561 60.164 12.7183 60.094 12.7033C60.032 12.6902 59.968 12.6902 59.906 12.7033C59.836 12.7183 59.7701 12.7561 59.6384 12.832L56.0888 14.8767C55.6431 15.1333 55.4203 15.2616 55.2598 15.2345C55.1204 15.2109 55 15.1237 54.9345 14.9984C54.859 14.8544 54.9124 14.6032 55.0191 14.1005L55.8694 10.0974C55.9009 9.94873 55.9167 9.87446 55.9092 9.80335C55.9026 9.74047 55.8828 9.67966 55.8511 9.62482C55.8153 9.56293 55.7588 9.51206 55.6459 9.41042L52.6018 6.67079C52.2197 6.32683 52.0286 6.15489 52.0048 5.99407C51.9842 5.85435 52.0302 5.71304 52.1291 5.61212C52.243 5.49594 52.4988 5.46898 53.0104 5.41506L57.0855 4.98552C57.2368 4.96958 57.3124 4.96162 57.3778 4.93252C57.4356 4.90679 57.4874 4.8692 57.5298 4.82219C57.5777 4.76908 57.6087 4.69971 57.6706 4.56099L59.3389 0.823233Z" fill="#C7A961"/>
<path fill-rule="evenodd" clip-rule="evenodd" d="M85.3389 0.823233C85.5484 0.353968 85.6531 0.119336 85.799 0.0470819C85.9256 -0.015694 86.0744 -0.015694 86.201 0.0470819C86.3469 0.119336 86.4516 0.353968 86.6611 0.823233L88.3294 4.56099C88.3914 4.69971 88.4223 4.76908 88.4702 4.82219C88.5126 4.8692 88.5644 4.90679 88.6222 4.93252C88.6876 4.96162 88.7633 4.96958 88.9145 4.98552L92.9897 5.41506C93.5013 5.46898 93.757 5.49594 93.8709 5.61212C93.9698 5.71304 94.0158 5.85435 93.9952 5.99407C93.9715 6.15489 93.7804 6.32683 93.3982 6.67079L90.3541 9.41042C90.2412 9.51206 90.1847 9.56293 90.1489 9.62482C90.1173 9.67966 90.0975 9.74047 90.0909 9.80335C90.0833 9.87446 90.0991 9.94873 90.1307 10.0974L90.9809 14.1005C91.0877 14.6032 91.1411 14.8544 91.0656 14.9984C91 15.1237 90.8797 15.2109 90.7403 15.2345C90.5798 15.2616 90.3569 15.1333 89.9113 14.8767L86.3616 12.832C86.2299 12.7561 86.164 12.7183 86.094 12.7033C86.032 12.6902 85.968 12.6902 85.906 12.7033C85.836 12.7183 85.7701 12.7561 85.6384 12.832L82.0888 14.8767C81.6431 15.1333 81.4203 15.2616 81.2598 15.2345C81.1204 15.2109 81 15.1237 80.9345 14.9984C80.859 14.8544 80.9124 14.6032 81.0191 14.1005L81.8694 10.0974C81.9009 9.94873 81.9167 9.87446 81.9092 9.80335C81.9026 9.74047 81.8828 9.67966 81.8511 9.62482C81.8153 9.56293 81.7588 9.51206 81.6459 9.41042L78.6018 6.67079C78.2197 6.32683 78.0286 6.15489 78.0048 5.99407C77.9842 5.85435 78.0302 5.71304 78.1291 5.61212C78.243 5.49594 78.4988 5.46898 79.0104 5.41506L83.0855 4.98552C83.2368 4.96958 83.3124 4.96162 83.3778 4.93252C83.4356 4.90679 83.4874 4.8692 83.5298 4.82219C83.5777 4.76908 83.6087 4.69971 83.6706 4.56099L85.3389 0.823233Z" fill="#C7A961"/>
<path fill-rule="evenodd" clip-rule="evenodd" d="M111.339 0.823233C111.548 0.353968 111.653 0.119336 111.799 0.0470819C111.926 -0.015694 112.074 -0.015694 112.201 0.0470819C112.347 0.119336 112.452 0.353968 112.661 0.823233L114.329 4.56099C114.391 4.69971 114.422 4.76908 114.47 4.82219C114.513 4.8692 114.564 4.90679 114.622 4.93252C114.688 4.96162 114.763 4.96958 114.915 4.98552L118.99 5.41506C119.501 5.46898 119.757 5.49594 119.871 5.61212C119.97 5.71304 120.016 5.85435 119.995 5.99407C119.971 6.15489 119.78 6.32683 119.398 6.67079L116.354 9.41042C116.241 9.51206 116.185 9.56293 116.149 9.62482C116.117 9.67966 116.097 9.74047 116.091 9.80335C116.083 9.87446 116.099 9.94873 116.131 10.0974L116.981 14.1005C117.088 14.6032 117.141 14.8544 117.066 14.9984C117 15.1237 116.88 15.2109 116.74 15.2345C116.58 15.2616 116.357 15.1333 115.911 14.8767L112.362 12.832C112.23 12.7561 112.164 12.7183 112.094 12.7033C112.032 12.6902 111.968 12.6902 111.906 12.7033C111.836 12.7183 111.77 12.7561 111.638 12.832L108.089 14.8767C107.643 15.1333 107.42 15.2616 107.26 15.2345C107.12 15.2109 107 15.1237 106.934 14.9984C106.859 14.8544 106.912 14.6032 107.019 14.1005L107.869 10.0974C107.901 9.94873 107.917 9.87446 107.909 9.80335C107.903 9.74047 107.883 9.67966 107.851 9.62482C107.815 9.56293 107.759 9.51206 107.646 9.41042L104.602 6.67079C104.22 6.32683 104.029 6.15489 104.005 5.99407C103.984 5.85435 104.03 5.71304 104.129 5.61212C104.243 5.49594 104.499 5.46898 105.01 5.41506L109.086 4.98552C109.237 4.96958 109.312 4.96162 109.378 4.93252C109.436 4.90679 109.487 4.8692 109.53 4.82219C109.578 4.76908 109.609 4.69971 109.671 4.56099L111.339 0.823233Z" fill="#C7A961"/>
</svg>
