<svg width="11" height="7" viewBox="0 0 11 7" fill="none" xmlns="http://www.w3.org/2000/svg">
<path d="M7.01677 0.134081C6.82289 0.318698 6.82114 0.617921 7.01283 0.8046L9.33484 3.02425H0.496536C0.222307 3.02425 0 3.2364 0 3.49809C0 3.75979 0.222307 3.97193 0.496536 3.97193H9.33121L7.00798 6.19187C6.81751 6.37972 6.81966 6.67851 7.01283 6.86384C7.207 7.04684 7.51982 7.04516 7.71182 6.86008L10.8588 3.8335V3.8335C10.9017 3.78959 10.9366 3.73907 10.9618 3.68407C10.9876 3.62646 11.0006 3.56436 11 3.5017C11 3.37773 10.9492 3.25867 10.8585 3.16991L7.71182 0.145064C7.62189 0.0544338 7.49749 0.00219004 7.36671 5.99058e-05C7.23594 -0.00194283 7.1098 0.0463422 7.01677 0.134081Z" fill="#225281"/>
</svg>
