<svg width="28" height="18" viewBox="0 0 28 18" fill="none" xmlns="http://www.w3.org/2000/svg">
<path d="M27.14 9.96418H1.52V0.753829C1.52 0.337535 1.1797 0 0.759998 0C0.340297 0 0 0.337535 0 0.753829V17.2462C0 17.6625 0.340297 18 0.759998 18H0.774346C1.19405 18 1.53434 17.6625 1.53434 17.2462V11.4718H26.38V17.2461C26.38 17.6624 26.7202 17.9999 27.14 17.9999C27.5595 17.9999 27.9 17.6624 27.9 17.2461V10.718C27.9 10.3017 27.5596 9.96418 27.14 9.96418Z" fill="black"/>
<path fill-rule="evenodd" clip-rule="evenodd" d="M5.85022 8.10078C4.11332 8.10078 2.7002 6.68773 2.7002 4.95078C2.7002 3.21389 4.11332 1.80078 5.85022 1.80078C7.58713 1.80078 9.0002 3.21389 9.0002 4.95078C9.0002 6.68767 7.58713 8.10078 5.85022 8.10078ZM5.85028 6.63173C6.77715 6.63173 7.53119 5.87764 7.53119 4.95078C7.53119 4.02393 6.77715 3.26983 5.85028 3.26983C4.92342 3.26983 4.16932 4.02393 4.16932 4.95078C4.16932 5.87764 4.92342 6.63173 5.85028 6.63173Z" fill="black"/>
<path fill-rule="evenodd" clip-rule="evenodd" d="M9.90039 7.27583V3.52261C9.90039 3.0679 10.2439 2.69922 10.6676 2.69922H27.1332C27.5568 2.69922 27.9004 3.0679 27.9004 3.52261V7.27583C27.9004 7.73054 27.5568 8.09922 27.1332 8.09922H10.6676C10.2439 8.09922 9.90039 7.73054 9.90039 7.27583ZM26.366 4.346H11.4348V6.45244H26.366V4.346Z" fill="black"/>
</svg>
