<svg width="20" height="20" viewBox="0 0 20 20" fill="none" xmlns="http://www.w3.org/2000/svg">
<path fill-rule="evenodd" clip-rule="evenodd" d="M5.58405 2.79579C6.36654 1.14373 8.04896 0 10 0C11.9511 0 13.6335 1.14373 14.4159 2.79579C14.494 2.79241 14.5724 2.7907 14.6512 2.7907C17.6052 2.7907 20 5.18545 20 8.13953C20 10.168 18.871 11.9313 17.2093 12.838V15.6298C17.2093 16.4656 17.2094 17.1625 17.135 17.7158C17.0565 18.2998 16.8837 18.8271 16.46 19.2507C16.0364 19.6744 15.5091 19.8472 14.9251 19.9257C14.3718 20.0001 13.6749 20 12.8391 20H7.16094C6.32514 20 5.62819 20.0001 5.0749 19.9257C4.49091 19.8472 3.96366 19.6744 3.53996 19.2507C3.11627 18.8271 2.94355 18.2998 2.86503 17.7158C2.79064 17.1625 2.79067 16.4656 2.7907 15.6298V12.838C1.12903 11.9313 0 10.168 0 8.13953C0 5.18545 2.39475 2.7907 5.34884 2.7907C5.42762 2.7907 5.50604 2.79241 5.58405 2.79579ZM5.16523 4.19023C3.06701 4.28616 1.39535 6.01763 1.39535 8.13953C1.39535 9.75963 2.36994 11.1537 3.7677 11.7644C4.02181 11.8753 4.18605 12.1264 4.18605 12.4037V14.8837H15.814V12.4037C15.814 12.1264 15.9781 11.8753 16.2323 11.7644C17.63 11.1537 18.6047 9.75963 18.6047 8.13953C18.6047 6.01763 16.933 4.28615 14.8348 4.19023C14.8671 4.41698 14.8837 4.64854 14.8837 4.88372V5.34884C14.8837 5.73415 14.5713 6.04651 14.186 6.04651C13.8007 6.04651 13.4884 5.73415 13.4884 5.34884V4.88372C13.4884 4.49037 13.4235 4.1136 13.3046 3.76266C12.8374 2.38513 11.5334 1.39535 10 1.39535C8.4666 1.39535 7.16261 2.38513 6.69547 3.76266C6.57646 4.1136 6.51163 4.49037 6.51163 4.88372V5.34884C6.51163 5.73415 6.19927 6.04651 5.81395 6.04651C5.42864 6.04651 5.11628 5.73415 5.11628 5.34884V4.88372C5.11628 4.64853 5.13295 4.41698 5.16523 4.19023ZM15.8123 16.2791H4.18773C4.19167 16.8087 4.20473 17.2085 4.24794 17.5299C4.30566 17.9592 4.4054 18.1429 4.52662 18.2641C4.64784 18.3853 4.83156 18.485 5.26083 18.5428C5.71017 18.6032 6.31255 18.6047 7.2093 18.6047H12.7907C13.6874 18.6047 14.2899 18.6032 14.7392 18.5428C15.1685 18.485 15.3522 18.3853 15.4734 18.2641C15.5946 18.1429 15.6943 17.9592 15.7521 17.5299C15.7953 17.2085 15.8084 16.8087 15.8123 16.2791Z" fill="black"/>
</svg>
