<svg width="20" height="20" viewBox="0 0 20 20" fill="none" xmlns="http://www.w3.org/2000/svg">
<path fill-rule="evenodd" clip-rule="evenodd" d="M6.20249 9.30031C6.20249 9.52281 6.21499 9.7428 6.23749 9.96029C6.24999 10.0603 6.18499 10.1528 6.08749 10.1778C5.105 10.4253 4.20501 10.9353 3.47002 11.6702C2.43753 12.7002 1.85004 14.0577 1.80254 15.5076C1.80004 15.6151 1.71004 15.7001 1.60254 15.7001H0.20006C0.14614 15.7001 0.0944969 15.6784 0.056843 15.6398C0.0191891 15.6012 -0.00128542 15.549 6.25893e-05 15.4951C0.050062 13.5677 0.825053 11.7627 2.19504 10.3953C2.83003 9.7603 3.56252 9.25282 4.35751 8.88533C3.22502 7.96785 2.50253 6.56789 2.50253 4.99794C2.50253 2.23052 4.8125 -0.0419122 7.58497 0.000586576C9.50495 0.0305857 11.1649 1.14055 11.9774 2.74801C12.0399 2.873 11.9599 3.023 11.8199 3.038C11.3424 3.088 10.8774 3.19549 10.4374 3.34799C10.3524 3.37799 10.2549 3.34549 10.2049 3.26799C10.0624 3.048 9.89244 2.843 9.69495 2.65801C9.11245 2.11302 8.34246 1.80553 7.54497 1.79803C6.66248 1.78803 5.83249 2.13302 5.215 2.76551C4.65251 3.34049 4.33001 4.10297 4.30751 4.90544C4.28057 5.80104 4.63172 6.66665 5.275 7.29037C5.545 7.55537 5.85749 7.76536 6.19749 7.91785C6.27999 7.95535 6.32749 8.04785 6.30999 8.13785C6.23999 8.51534 6.20249 8.90283 6.20249 9.30031ZM17.8048 14.6977C17.1791 14.0714 16.4479 13.5603 15.6449 13.1877C16.7774 12.2702 17.4999 10.8703 17.4999 9.30031C17.4999 6.5304 15.1899 4.25796 12.4199 4.30046C9.69245 4.34296 7.49497 6.56539 7.49497 9.30031C7.49497 10.8703 8.21996 12.2702 9.34995 13.1877C8.54673 13.56 7.81552 14.0712 7.18998 14.6977C5.82499 16.0651 5.05 17.8701 5 19.795C4.99865 19.8489 5.01913 19.9011 5.05678 19.9397C5.09444 19.9783 5.14608 20 5.2 20H6.59998C6.70748 20 6.79748 19.915 6.79998 19.8075C6.84748 18.3575 7.43497 17.0001 8.46746 15.9701C9.53464 14.8973 10.9867 14.296 12.4999 14.3002C14.0224 14.3002 15.4549 14.8926 16.5324 15.9701C17.5624 17.0001 18.1498 18.3575 18.1998 19.8075C18.2023 19.915 18.2923 20 18.3998 20H19.7998C19.8537 20 19.9054 19.9783 19.943 19.9397C19.9807 19.9011 20.0012 19.8489 19.9998 19.795C19.9498 17.8701 19.1748 16.0651 17.8048 14.6977ZM12.4999 12.5002C11.6449 12.5002 10.8399 12.1677 10.2374 11.5627C9.62651 10.9566 9.28813 10.1283 9.29995 9.26781C9.30745 8.44784 9.63495 7.65536 10.2074 7.06788C10.8074 6.4529 11.6099 6.11041 12.4674 6.10041C13.3149 6.09291 14.1374 6.4229 14.7424 7.01538C15.3624 7.62286 15.7024 8.43534 15.7024 9.30031C15.7024 10.1553 15.3699 10.9578 14.7649 11.5627C14.1654 12.1651 13.3498 12.5027 12.4999 12.5002Z" fill="black"/>
</svg>
